<svg width="768" height="91" fill="none" xmlns="http://www.w3.org/2000/svg"><path d="M0 .33h768v90H0v-90z" fill="#FEECEC"/><path d="M334.177 37.53v5.088h2.304v-3h7.68l-6.648 14.712h2.544l6.792-15.168V37.53h-12.672zm21.555 6.6c-2.088 0-3.864.768-4.824 2.208-.024-.216-.024-.408-.024-.6 0-4.2 2.184-6.336 5.592-6.336 1.2 0 2.352.216 3.216.792l.912-1.872c-1.08-.672-2.592-.984-4.176-.984-4.704 0-7.944 3.072-7.944 8.808 0 5.352 2.544 8.376 7.056 8.376 3.336 0 5.952-2.064 5.952-5.304 0-3.096-2.424-5.088-5.76-5.088zm-.288 8.448c-2.592 0-3.984-1.512-3.984-3.24 0-1.848 1.584-3.264 3.864-3.264 2.352 0 3.84 1.272 3.84 3.24 0 1.992-1.536 3.264-3.72 3.264zm18.125-7.056c1.536-.72 2.376-1.968 2.376-3.624 0-2.808-2.448-4.56-6.096-4.56-3.624 0-6.048 1.752-6.048 4.56 0 1.656.816 2.904 2.352 3.624-1.896.72-2.952 2.136-2.952 4.056 0 3.048 2.568 4.944 6.648 4.944 4.104 0 6.696-1.896 6.696-4.944 0-1.92-1.056-3.312-2.976-4.056zm-3.72-6.24c2.256 0 3.744 1.032 3.744 2.712 0 1.656-1.416 2.688-3.744 2.688-2.304 0-3.672-1.032-3.672-2.688 0-1.68 1.416-2.712 3.672-2.712zm0 13.296c-2.664 0-4.248-1.176-4.248-3.072 0-1.848 1.584-3 4.248-3s4.296 1.152 4.296 3c0 1.896-1.632 3.072-4.296 3.072zm27.098 1.752l-5.064-6.504 4.8-6.216h-2.52l-3.48 4.584-3.504-4.584h-2.568l4.776 6.216-5.016 6.504h2.568l3.72-4.872 3.672 4.872h2.616zm13.376-16.992c-3.336 0-5.928 2.064-5.928 5.304 0 3.096 2.4 5.088 5.736 5.088 2.088 0 3.864-.744 4.848-2.208v.6c0 4.2-2.16 6.336-5.568 6.336-1.224 0-2.352-.216-3.24-.792l-.912 1.872c1.08.672 2.592.984 4.176.984 4.704 0 7.944-3.072 7.944-8.808 0-5.352-2.544-8.376-7.056-8.376zm.216 8.448c-2.352 0-3.816-1.272-3.816-3.24 0-1.992 1.512-3.264 3.696-3.264 2.616 0 4.008 1.512 4.008 3.24 0 1.848-1.584 3.264-3.888 3.264zm16.012 8.736c3.912 0 6.84-3.12 6.84-8.592s-2.928-8.592-6.84-8.592c-3.936 0-6.864 3.12-6.864 8.592s2.928 8.592 6.864 8.592zm0-2.136c-2.64 0-4.464-2.16-4.464-6.456s1.824-6.456 4.464-6.456c2.616 0 4.44 2.16 4.44 6.456s-1.824 6.456-4.44 6.456zM0 .33v-2h-2v2h2zm768 0h2v-2h-2v2zm0 90v2h2v-2h-2zm-768 0h-2v2h2v-2zm0-88h768v-4H0v4zm766-2v90h4v-90h-4zm2 88H0v4h768v-4zm-766 2v-90h-4v90h4z" fill="#FF4F4F"/></svg>