<svg width="300" height="251" fill="none" xmlns="http://www.w3.org/2000/svg"><path d="M0 .097h300v250H0v-250z" fill="#FEECEC"/><path d="M99.857 124.353l4.392-5.424v-1.632H93.161v2.088h8.088l-4.224 5.184v1.68h1.344c2.88 0 4.152 1.152 4.152 2.928 0 1.824-1.44 2.976-3.96 2.976-2.064 0-3.936-.744-5.064-1.8l-1.104 1.896c1.416 1.272 3.768 2.04 6.168 2.04 4.272 0 6.36-2.304 6.36-5.136 0-2.592-1.704-4.488-5.064-4.8zm14.167 9.936c3.912 0 6.84-3.12 6.84-8.592s-2.928-8.592-6.84-8.592c-3.936 0-6.864 3.12-6.864 8.592s2.928 8.592 6.864 8.592zm0-2.136c-2.64 0-4.464-2.16-4.464-6.456s1.824-6.456 4.464-6.456c2.616 0 4.44 2.16 4.44 6.456s-1.824 6.456-4.44 6.456zm16.008 2.136c3.912 0 6.84-3.12 6.84-8.592s-2.928-8.592-6.84-8.592c-3.936 0-6.864 3.12-6.864 8.592s2.928 8.592 6.864 8.592zm0-2.136c-2.64 0-4.464-2.16-4.464-6.456s1.824-6.456 4.464-6.456c2.616 0 4.44 2.16 4.44 6.456s-1.824 6.456-4.44 6.456zm27.349 1.944l-5.064-6.504 4.8-6.216h-2.52l-3.48 4.584-3.504-4.584h-2.568l4.776 6.216-5.016 6.504h2.568l3.72-4.872 3.672 4.872h2.616zm11.119-2.088l5.136-4.944c2.28-2.184 2.76-3.648 2.76-5.28 0-2.88-2.256-4.68-5.76-4.68-2.616 0-4.848.936-6.144 2.544l1.632 1.416c1.032-1.248 2.496-1.824 4.296-1.824 2.352 0 3.576 1.056 3.576 2.784 0 1.056-.336 2.112-2.112 3.84l-6.84 6.6v1.632h12.072v-2.088H168.5zm15.39-8.016h-1.872l.456-4.608h7.464v-2.088h-9.48l-.888 8.784h3.816c3.888 0 5.088 1.176 5.088 3.072 0 1.824-1.44 3-3.984 3-2.04 0-3.912-.744-5.04-1.8l-1.104 1.896c1.44 1.272 3.792 2.04 6.168 2.04 4.296 0 6.36-2.328 6.36-5.232 0-2.976-1.968-5.064-6.984-5.064zm15.845 10.296c3.912 0 6.84-3.12 6.84-8.592s-2.928-8.592-6.84-8.592c-3.936 0-6.864 3.12-6.864 8.592s2.928 8.592 6.864 8.592zm0-2.136c-2.64 0-4.464-2.16-4.464-6.456s1.824-6.456 4.464-6.456c2.616 0 4.44 2.16 4.44 6.456s-1.824 6.456-4.44 6.456zM0 .097v-2h-2v2h2zm300 0h2v-2h-2v2zm0 250v2h2v-2h-2zm-300 0h-2v2h2v-2zm0-248h300v-4H0v4zm298-2v250h4v-250h-4zm2 248H0v4h300v-4zm-298 2v-250h-4v250h4z" fill="#FF4F4F"/></svg>