<svg width="48" height="30" fill="none" xmlns="http://www.w3.org/2000/svg"><path d="M43.618.633l.557.37c-2.88 1.771-4.507 4.402-4.877 7.9 5.496 1.628 8.242 4.911 8.242 9.85 0 3.044-1.008 5.612-3.024 7.7s-4.488 3.13-7.406 3.13c-2.962 0-5.4-1.052-7.316-3.15-1.915-2.097-2.87-4.785-2.87-8.054 0-4.114 1.589-7.9 4.771-11.362 3.173-3.45 7.147-5.577 11.923-6.384zM17.2.633l.557.37c-2.88 1.771-4.507 4.402-4.877 7.9 5.491 1.628 8.237 4.911 8.237 9.85 0 3.044-1.008 5.612-3.024 7.7s-4.488 3.13-7.406 3.13c-2.962 0-5.4-1.052-7.316-3.15C1.455 24.336.5 21.653.5 18.38c0-4.114 1.589-7.9 4.771-11.362C8.444 3.567 12.423 1.44 17.2.633z" fill="#005377"/></svg>