<svg width="768" height="91" viewBox="0 0 768 91" fill="none" xmlns="http://www.w3.org/2000/svg">
<path d="M0 0.330078H768V90.3301H0V0.330078Z" fill="#FEECEC"/>
<path d="M334.177 37.5301V42.6181H336.481V39.6181H344.161L337.513 54.3301H340.057L346.849 39.1621V37.5301H334.177ZM355.732 44.1301C353.644 44.1301 351.868 44.8981 350.908 46.3381C350.884 46.1221 350.884 45.9301 350.884 45.7381C350.884 41.5381 353.068 39.4021 356.476 39.4021C357.676 39.4021 358.828 39.6181 359.692 40.1941L360.604 38.3221C359.524 37.6501 358.012 37.3381 356.428 37.3381C351.724 37.3381 348.484 40.4101 348.484 46.1461C348.484 51.4981 351.028 54.5221 355.54 54.5221C358.876 54.5221 361.492 52.4581 361.492 49.2181C361.492 46.1221 359.068 44.1301 355.732 44.1301ZM355.444 52.5781C352.852 52.5781 351.46 51.0661 351.46 49.3381C351.46 47.4901 353.044 46.0741 355.324 46.0741C357.676 46.0741 359.164 47.3461 359.164 49.3141C359.164 51.3061 357.628 52.5781 355.444 52.5781ZM373.569 45.5221C375.105 44.8021 375.945 43.5541 375.945 41.8981C375.945 39.0901 373.497 37.3381 369.849 37.3381C366.225 37.3381 363.801 39.0901 363.801 41.8981C363.801 43.5541 364.617 44.8021 366.153 45.5221C364.257 46.2421 363.201 47.6581 363.201 49.5781C363.201 52.6261 365.769 54.5221 369.849 54.5221C373.953 54.5221 376.545 52.6261 376.545 49.5781C376.545 47.6581 375.489 46.2661 373.569 45.5221ZM369.849 39.2821C372.105 39.2821 373.593 40.3141 373.593 41.9941C373.593 43.6501 372.177 44.6821 369.849 44.6821C367.545 44.6821 366.177 43.6501 366.177 41.9941C366.177 40.3141 367.593 39.2821 369.849 39.2821ZM369.849 52.5781C367.185 52.5781 365.601 51.4021 365.601 49.5061C365.601 47.6581 367.185 46.5061 369.849 46.5061C372.513 46.5061 374.145 47.6581 374.145 49.5061C374.145 51.4021 372.513 52.5781 369.849 52.5781ZM396.947 54.3301L391.883 47.8261L396.683 41.6101H394.163L390.683 46.1941L387.179 41.6101H384.611L389.387 47.8261L384.371 54.3301H386.939L390.659 49.4581L394.331 54.3301H396.947ZM410.323 37.3381C406.987 37.3381 404.395 39.4021 404.395 42.6421C404.395 45.7381 406.795 47.7301 410.131 47.7301C412.219 47.7301 413.995 46.9861 414.979 45.5221V46.1221C414.979 50.3221 412.819 52.4581 409.411 52.4581C408.187 52.4581 407.059 52.2421 406.171 51.6661L405.259 53.5381C406.339 54.2101 407.851 54.5221 409.435 54.5221C414.139 54.5221 417.379 51.4501 417.379 45.7141C417.379 40.3621 414.835 37.3381 410.323 37.3381ZM410.539 45.7861C408.187 45.7861 406.723 44.5141 406.723 42.5461C406.723 40.5541 408.235 39.2821 410.419 39.2821C413.035 39.2821 414.427 40.7941 414.427 42.5221C414.427 44.3701 412.843 45.7861 410.539 45.7861ZM426.551 54.5221C430.463 54.5221 433.391 51.4021 433.391 45.9301C433.391 40.4581 430.463 37.3381 426.551 37.3381C422.615 37.3381 419.687 40.4581 419.687 45.9301C419.687 51.4021 422.615 54.5221 426.551 54.5221ZM426.551 52.3861C423.911 52.3861 422.087 50.2261 422.087 45.9301C422.087 41.6341 423.911 39.4741 426.551 39.4741C429.167 39.4741 430.991 41.6341 430.991 45.9301C430.991 50.2261 429.167 52.3861 426.551 52.3861Z" fill="#FF4F4F"/>
<path d="M0 0.330078V-1.66992H-2V0.330078H0ZM768 0.330078H770V-1.66992H768V0.330078ZM768 90.3301V92.3301H770V90.3301H768ZM0 90.3301H-2V92.3301H0V90.3301ZM0 2.33008H768V-1.66992H0V2.33008ZM766 0.330078V90.3301H770V0.330078H766ZM768 88.3301H0V92.3301H768V88.3301ZM2 90.3301V0.330078H-2V90.3301H2Z" fill="#FF4F4F"/>
</svg>
