<svg width="300" height="251" viewBox="0 0 300 251" fill="none" xmlns="http://www.w3.org/2000/svg">
<path d="M0 0.0974121H300V250.097H0V0.0974121Z" fill="#FEECEC"/>
<path d="M99.8574 124.353L104.249 118.929V117.297H93.1614V119.385H101.249L97.0254 124.569V126.249H98.3694C101.249 126.249 102.521 127.401 102.521 129.177C102.521 131.001 101.081 132.153 98.5614 132.153C96.4974 132.153 94.6254 131.409 93.4974 130.353L92.3934 132.249C93.8094 133.521 96.1614 134.289 98.5614 134.289C102.833 134.289 104.921 131.985 104.921 129.153C104.921 126.561 103.217 124.665 99.8574 124.353ZM114.024 134.289C117.936 134.289 120.864 131.169 120.864 125.697C120.864 120.225 117.936 117.105 114.024 117.105C110.088 117.105 107.16 120.225 107.16 125.697C107.16 131.169 110.088 134.289 114.024 134.289ZM114.024 132.153C111.384 132.153 109.56 129.993 109.56 125.697C109.56 121.401 111.384 119.241 114.024 119.241C116.64 119.241 118.464 121.401 118.464 125.697C118.464 129.993 116.64 132.153 114.024 132.153ZM130.032 134.289C133.944 134.289 136.872 131.169 136.872 125.697C136.872 120.225 133.944 117.105 130.032 117.105C126.096 117.105 123.168 120.225 123.168 125.697C123.168 131.169 126.096 134.289 130.032 134.289ZM130.032 132.153C127.392 132.153 125.568 129.993 125.568 125.697C125.568 121.401 127.392 119.241 130.032 119.241C132.648 119.241 134.472 121.401 134.472 125.697C134.472 129.993 132.648 132.153 130.032 132.153ZM157.381 134.097L152.317 127.593L157.117 121.377H154.597L151.117 125.961L147.613 121.377H145.045L149.821 127.593L144.805 134.097H147.373L151.093 129.225L154.765 134.097H157.381ZM168.5 132.009L173.636 127.065C175.916 124.881 176.396 123.417 176.396 121.785C176.396 118.905 174.14 117.105 170.636 117.105C168.02 117.105 165.788 118.041 164.492 119.649L166.124 121.065C167.156 119.817 168.62 119.241 170.42 119.241C172.772 119.241 173.996 120.297 173.996 122.025C173.996 123.081 173.66 124.137 171.884 125.865L165.044 132.465V134.097H177.116V132.009H168.5ZM183.89 123.993H182.018L182.474 119.385H189.938V117.297H180.458L179.57 126.081H183.386C187.274 126.081 188.474 127.257 188.474 129.153C188.474 130.977 187.034 132.153 184.49 132.153C182.45 132.153 180.578 131.409 179.45 130.353L178.346 132.249C179.786 133.521 182.138 134.289 184.514 134.289C188.81 134.289 190.874 131.961 190.874 129.057C190.874 126.081 188.906 123.993 183.89 123.993ZM199.735 134.289C203.647 134.289 206.575 131.169 206.575 125.697C206.575 120.225 203.647 117.105 199.735 117.105C195.799 117.105 192.871 120.225 192.871 125.697C192.871 131.169 195.799 134.289 199.735 134.289ZM199.735 132.153C197.095 132.153 195.271 129.993 195.271 125.697C195.271 121.401 197.095 119.241 199.735 119.241C202.351 119.241 204.175 121.401 204.175 125.697C204.175 129.993 202.351 132.153 199.735 132.153Z" fill="#FF4F4F"/>
<path d="M0 0.0974121V-1.90259H-2V0.0974121H0ZM300 0.0974121H302V-1.90259H300V0.0974121ZM300 250.097V252.097H302V250.097H300ZM0 250.097H-2V252.097H0V250.097ZM0 2.09741H300V-1.90259H0V2.09741ZM298 0.0974121V250.097H302V0.0974121H298ZM300 248.097H0V252.097H300V248.097ZM2 250.097V0.0974121H-2V250.097H2Z" fill="#FF4F4F"/>
</svg>
