<svg width="48" height="30" viewBox="0 0 48 30" fill="none" xmlns="http://www.w3.org/2000/svg">
<path d="M43.6184 0.633348L44.1752 1.00295C41.2952 2.77415 39.668 5.40455 39.2984 8.90375C44.7944 10.5309 47.54 13.8141 47.54 18.7534C47.54 21.7966 46.532 24.3646 44.516 26.4526C42.5 28.5406 40.028 29.5822 37.1096 29.5822C34.148 29.5822 31.7096 28.531 29.7944 26.4334C27.8792 24.3358 26.924 21.6478 26.924 18.379C26.924 14.2654 28.5128 10.4781 31.6952 7.01735C34.868 3.56615 38.8424 1.43975 43.6184 0.633348ZM17.1992 0.633348L17.756 1.00295C14.876 2.77415 13.2488 5.40455 12.8792 8.90375C18.3704 10.5309 21.116 13.8141 21.116 18.7534C21.116 21.7966 20.108 24.3646 18.092 26.4526C16.076 28.5406 13.604 29.5822 10.6856 29.5822C7.72404 29.5822 5.28564 28.531 3.37044 26.4334C1.45524 24.3358 0.500042 21.6526 0.500042 18.379C0.500042 14.2654 2.08884 10.4781 5.27124 7.01735C8.44404 3.56615 12.4232 1.43975 17.1992 0.633348Z" fill="#005377"/>
</svg>
